<?xml version="1.0" encoding="UTF-8"?>
<svg width="41.917" height="52.177" enable-background="new 0 0 41.917 52.1768" viewBox="0 0 41.917 52.1768" xmlns="http://www.w3.org/2000/svg">
 <defs>
  <radialGradient id="c" cx="26.288" cy="25.089" r="23.359" gradientUnits="userSpaceOnUse">
   <stop stop-color="#fff200" offset="0"/>
   <stop stop-color="#006e3a" offset="1"/>
  </radialGradient>
  <radialGradient id="b" cx="16.471" cy="3.5913" r="4.2551" gradientTransform="matrix(.9995,-.0318,.0318,.9995,-.3866,1.2215)" gradientUnits="userSpaceOnUse">
   <stop stop-color="#fff200" offset="0"/>
   <stop stop-color="#006e3a" offset="1"/>
  </radialGradient>
  <radialGradient id="a" cx="29.783" cy="3.9849" r="4.2551" gradientTransform="matrix(.9995,-.0318,.0318,.9995,-.3866,1.2215)" gradientUnits="userSpaceOnUse">
   <stop stop-color="#fff200" offset="0"/>
   <stop stop-color="#006e3a" offset="1"/>
  </radialGradient>
  <radialGradient id="f" cx="25.29" cy="26.566" r="3.2812" gradientUnits="userSpaceOnUse">
   <stop stop-color="#565759" offset="0"/>
   <stop offset="1"/>
  </radialGradient>
  <radialGradient id="e" cx="23.812" cy="28.832" r="4.5701" gradientUnits="userSpaceOnUse">
   <stop stop-color="#565759" offset="0"/>
   <stop offset="1"/>
  </radialGradient>
  <radialGradient id="d" cx="17.216" cy="42.234" r="14.902" gradientUnits="userSpaceOnUse">
   <stop stop-color="#1e3319" offset="0"/>
   <stop stop-color="#006e3a" offset="1"/>
  </radialGradient>
 </defs>
 <path d="m39.828 49.074a18.429 2.1841 0 1 0 -36.858 0 18.429 2.1841 0 1 0 36.858 0" fill="#bcbec0" opacity=".75"/>
 <path d="m27.283,13.206c7.2432,2.291 12.493,9.0659 12.493,17.067 0,9.8838-8.0127,17.896-17.896,17.896s-17.896-8.0127-17.896-17.896c0-8.2842 5.627-15.253 13.268-17.292l.1016-.3911c-.4536-.5879-1.6196-3.5874-1.812-3.5815-2.0732.0664-3.8066-1.5605-3.8726-3.6338s1.561-3.8057 3.6333-3.8726 3.8076,1.561 3.873,3.6348c.04,1.2515-.5386,2.3799-1.4585,3.0918-.1338.103 1.0039,3.2759 1.1284,3.9873l.6533.3174c.7798-.104 1.5747-.1572 2.3823-.1572 1.0933,0 2.1636.0977 3.2021.2856l.686-.2856c.0723-.7075.9805-3.9614.8408-4.0581-.9487-.6533-1.585-1.7339-1.6245-2.9736-.0654-2.0732 1.5615-3.8071 3.6343-3.8726s3.8066,1.561 3.8726,3.6333-1.561,3.8071-3.6338,3.873c-.1987.0063-1.3184,3.0986-1.7573,3.7705l.183.458z" fill="#8cc63f" stroke="#006031" stroke-width=".4831"/>
 <path d="m39.137 30.352a17.338 17.338 0 1 0 -34.676 0 17.338 17.338 0 1 0 34.676 0" fill="url(#c)" stroke="#28903a" stroke-width=".4831"/>
 <path d="m18.563 5.2722a3.1586 3.1586 0 1 0 -6.3172 0 3.1586 3.1586 0 1 0 6.3172 0" fill="url(#b)" opacity=".5"/>
 <path d="m31.88 5.2417a3.1586 3.1586 0 1 0 -6.3172 0 3.1586 3.1586 0 1 0 6.3172 0" fill="url(#a)" opacity=".41"/>
 <path d="m20.845,23.622c.0337,1.9717-1.3672,4.4429-3.8232,3.4658-3.1704-1.2612-.0244-6.0156 2.4561-5.6006 .913.153 1.349,1.071 1.367,2.135z" fill="url(#f)"/>
 <path d="m21.948,22.627c-1.4346,3.0522 2.0425,8.5542 5.5508,6.1689 3.4897-2.3726-1.1172-9.125-4.584-7.2935-.401.213-.73.622-.967,1.125z" fill="url(#e)"/>
 <path d="m15.927,36.157c1.4355-.5684 2.9634-.9185 3.8232-1.0664 2.5923-.4473 13.16,3.5332 8.4902,6.9575-1.6606,1.2173-3.9077-.3296-5.6411-.8374-1.8867-.5527-3.6807-.7949-5.5996-.1958-1.5244.4756-3.0845,1.4722-4.1987-.4893-1.158-2.041.869-3.475 3.127-4.369z" fill="url(#d)" stroke="#1e3319" stroke-width=".5797"/>
 <path d="m19.428,38.313c-1.0171.147-2.6641,1.3862-3.2886,2.1602-.3408.4233-.4468.3535.144.6982 .2817.1646.8979.2231 1.2041.0996 .4551-.1831.7417-.748 1.1123-1.1187 .3804-.3809.9492-1.0654 1.5737-.8574 .7949.2651.5044,1.0859.147,1.5879 .5532-.1787 1.1392-.7783 1.1475-1.3794 1.2021.1592 1.5957-.1064 2.6362-.6929-.6621.04-1.5366.1763-2.3296-.04-.804-.221-1.468-.585-2.346-.458z" fill="#1e3319"/>
 <path d="m23,17.084c-.4204.2598-.7803.8101-.9155,1.272 .7827.7676 2.0693-.0981 3.1724-.0278 1.8511.1182 3.1597,1.0049 4.2124,2.4302-.4624-2.2686-4.0415-3.9976-6.2192-3.6743" fill="#28903a"/>
</svg>
