<?xml version="1.0" encoding="UTF-8"?>
<svg enable-background="new 0 0 40.833 52.176" viewBox="0 0 40.833 52.176" xmlns="http://www.w3.org/2000/svg">
 <defs>
  <radialGradient id="d" cx="23.286" cy="25.441" r="23.359" gradientTransform="matrix(.9593 -.2824 -.2824 -.9593 8.2812 55.815)" gradientUnits="userSpaceOnUse">
   <stop stop-color="#fff200" offset="0"/>
   <stop stop-color="#006e3a" offset="1"/>
  </radialGradient>
  <radialGradient id="c" cx=".7373" cy="38.362" r="4.2551" gradientTransform="matrix(.9499 -.3127 -.3127 -.9499 19.172 44.398)" gradientUnits="userSpaceOnUse">
   <stop stop-color="#fff200" offset="0"/>
   <stop stop-color="#006e3a" offset="1"/>
  </radialGradient>
  <radialGradient id="b" cx="14.048" cy="37.967" r="4.2546" gradientTransform="matrix(.9499 -.3127 -.3127 -.9499 19.172 44.398)" gradientUnits="userSpaceOnUse">
   <stop stop-color="#fff200" offset="0"/>
   <stop stop-color="#006e3a" offset="1"/>
  </radialGradient>
  <radialGradient id="a" cx="21.621" cy="155.81" r="9.9797" gradientTransform="matrix(.9904 .1384 .2052 -1.4688 -30.808 250.95)" gradientUnits="userSpaceOnUse">
   <stop stop-color="#565759" offset="0"/>
   <stop offset="1"/>
  </radialGradient>
  <radialGradient id="e" cx="12.872" cy="5.7993" r="9.8692" gradientTransform="matrix(.9593 -.2824 -.2824 -.9593 8.2812 55.815)" gradientUnits="userSpaceOnUse">
   <stop stop-color="#1e3319" offset="0"/>
   <stop stop-color="#006e3a" offset="1"/>
  </radialGradient>
 </defs>
 <path d="m38.745 49.074a18.429 2.184 0 1 0 -36.858 0 18.429 2.184 0 1 0 36.858 0" fill="#bcbec0" opacity=".75"/>
 <path d="m21.034,13.153c7.595.153 14.544,5.17 16.803,12.845 2.791,9.482-2.634,19.43-12.114,22.22s-19.43-2.633-22.221-12.114c-2.339-7.946 1.091-16.221 7.846-20.335l-.013-.404c-.602-.436-2.567-2.983-2.75-2.925-1.97.649-4.093-.422-4.742-2.392s.423-4.092 2.392-4.741 4.094.422 4.742,2.393c.392,1.189.155,2.436-.526,3.378-.099.137 1.889,2.859 2.208,3.506l.716.12c.719-.32 1.466-.595 2.241-.823 1.049-.309 2.103-.517 3.153-.63l.577-.468c-.13-.7-.178-4.077-.339-4.131-1.094-.358-2.01-1.216-2.398-2.394-.65-1.969.422-4.092 2.391-4.74s4.092.423 4.742,2.392-.423,4.093-2.393,4.742c-.188.062-.389,3.345-.621,4.113l.306.388z" fill="#8cc63f" stroke="#006031" stroke-width=".4831"/>
 <path d="m37.953 31.149a17.338 17.338 0 1 0 -34.676 0 17.338 17.338 0 1 0 34.676 0" fill="url(#d)" stroke="#28903a" stroke-width=".4831"/>
 <path d="m10.556 8.896a3.159 3.159 0 1 0 -6.318 0 3.159 3.159 0 1 0 6.318 0" fill="url(#c)" opacity=".5"/>
 <path d="m23.324 5.107a3.159 3.159 0 1 0 -6.318 0 3.159 3.159 0 1 0 6.318 0" fill="url(#b)" opacity=".41"/>
 <path d="m27.967,29.354c.97.462 1.911,1.09 2.892.98 4.316-.48-.659-5.343-1.941-6.339-.963-.749-2.778-2.177-4.013-2.25-2.023-.121-2.657,2.251-2.549,3.796 .063.907.112,2.08.746,2.803 .956,1.09 2.089.497 3.322.553 .529.022 1.039.218 1.543.457z" fill="url(#a)"/>
 <path d="m21.407,42.045c1.221.037 7.142-1.284 7.351,1.043 .097,1.073-1.02,1.294-1.841,1.129-1.026-.205-1.745-1.004-2.805-1.259-.869-.209-1.509-.127-2.361-.074-.96.06-1.884.045-2.831.204-1.289.216-2.021,1.088-3.179,1.382-.896.228-1.868.033-1.829-1.049 .091-2.502 6.079-1.419 7.495-1.376z" fill="url(#e)" stroke="#1e3319" stroke-width=".4203"/>
 <path d="m20.271,26.418c.015-.452-.008-.895-.04-1.279-.142-1.731-.888-3.183-2.807-3.419-2.043-.251-3.317,1.469-4.608,2.721-1.473,1.429-3.333,2.854-3.232,5.147 .083,1.871 1.138.889 2.049.296 1.372-.891 2.849-1.494 4.543-1.191 .685.123 1.8.748 2.456.611 1.262-.264 1.598-1.608 1.639-2.886z" fill="url(#a)"/>
 <path d="m19.417,45.588c.885-.602 3.673-1.172 4,0" fill="none" stroke="#1e3319" stroke-width=".4203"/>
 <path d="m16.75,22.922c-.781-.174-2.456.956-1.17,1.345 .818.248 1.845-.872 1.004-1.512" fill="#fff"/>
 <path d="m24.75,22.755c-.818.026-1.494.921-.508,1.169 .71.179 1.673-.674.841-1.002" fill="#fff"/>
 <path d="m14.25,24.922c-.246.164-.313.344-.201.541 .239-.107.216-.069.387-.203-.049-.474-.302-.078-.353-.171" fill="#fff"/>
 <path d="m23.75,24.755c-.17.262-.178.502-.025.72 .675-.288.53-.35.191-.553" fill="#fff"/>
 <path d="m14.25,30.921c.98-.342 1.727-.729 2.667-.166" fill="none" stroke="#1e3319" stroke-width=".4203"/>
 <path d="m25.25,30.921c.826-.191 1.79-.411 2.333.334" fill="none" stroke="#1e3319" stroke-width=".4203"/>
</svg>
